{"title":"Duplex (2003) BRrip 720p x264 Dual Audio [Eng DD 5.1-Hindi] Xdes","uid":11389560,"size":1037798008,"categoryP":"video","categoryS":"hd___movies","magnet":"?xt=urn:btih:ec46be9101a93191a703e19a3138317e26d00b27&amp;dn=Duplex+%282003%29+BRrip+720p+x264+Dual+Audio+%5BEng+DD+5.1-Hindi%5D+Xdes&amp;tr=udp%3A%2F%2Ftracker.openbittorrent.com%3A80&amp;tr=udp%3A%2F%2Fopen.demonii.com%3A1337&amp;tr=udp%3A%2F%2Ftracker.coppersurfer.tk%3A6969&amp;tr=udp%3A%2F%2Fexodus.desync.com%3A6969","seeders":5,"leechers":1,"uploader":"Xdesiars","files":3,"time":1415306420,"description":"Format                                   : Matroska\nFormat version                           : Version 2\nFile size                                : 979 MiB\nDuration                                 : 1h 29mn\nOverall bit rate                         : 1 536 Kbps\nMovie name                               : Duplex (2003) by XdesiArsenal [ExD-XMR]\nEncoded date                             : UTC 2014-11-04 19:35:38\nWriting application                      : mkvmerge v5.0.1 ('Es ist Sommer') built on Nov 23 2011 20:48:57\nWriting library                          : libebml v1.2.2 + libmatroska v1.3.0\n\nVideo\nID                                       : 1\nFormat                                   : AVC\nFormat/Info                              : Advanced Video Codec\nFormat profile                           : &lt;a class=&quot;__cf_email__&quot; href=&quot;/cdn-cgi/l/email-protection&quot; data-cfemail=&quot;6f220e06012f235c415e&quot;&gt;[email&amp;#160;protected]&lt;/a&gt;&lt;script cf-hash='f9e31' type=&quot;text/javascript&quot;&gt;\n/* &lt;![CDATA[ */!function(){try{var t=&quot;currentScript&quot;in document?document.currentScript:function(){for(var t=document.getElementsByTagName(&quot;script&quot;),e=t.length;e--;)if(t[e].getAttribute(&quot;cf-hash&quot;))return t[e]}();if(t&amp;&amp;t.previousSibling){var e,r,n,i,c=t.previousSibling,a=c.getAttribute(&quot;data-cfemail&quot;);if(a){for(e=&quot;&quot;,r=parseInt(a.substr(0,2),16),n=2;a.length-n;n+=2)i=parseInt(a.substr(n,2),16)^r,e+=String.fromCharCode(i);e=document.createTextNode(e),c.parentNode.replaceChild(e,c)}}}catch(u){}}();/* ]]&gt; */&lt;/script&gt;\nFormat settings, CABAC                   : Yes\nFormat settings, ReFrames                : 4 frames\nMuxing mode                              : Header stripping\nCodec ID                                 : V_MPEG4/ISO/AVC\nDuration                                 : 1h 29mn\nBit rate                                 : 1 185 Kbps\nWidth                                    : 1 280 pixels\nHeight                                   : 720 pixels\nDisplay aspect ratio                     : 16:9\nFrame rate mode                          : Constant\nFrame rate                               : 23.976 fps\nColor space                              : YUV\nChroma subsampling                       : 4:2:0\nBit depth                                : 8 bits\nScan type                                : Progressive\nBits/(Pixel*Frame)                       : 0.054\nStream size                              : 756 MiB (77%)\nTitle                                    : Duplex (2003) by XdesiArsenal [ExD-XMR]\nWriting library                          : x264 core 112\nLanguage                                 : English\nDefault                                  : Yes\nForced                                   : No\nColor primaries                          : BT.709\nTransfer characteristics                 : BT.709\nMatrix coefficients                      : BT.709\n\nAudio #1\nID                                       : 2\nFormat                                   : AC-3\nFormat/Info                              : Audio Coding 3\nMode extension                           : CM (complete main)\nFormat settings, Endianness              : Big\nMuxing mode                              : Header stripping\nCodec ID                                 : A_AC3\nDuration                                 : 1h 29mn\nBit rate mode                            : Constant\nBit rate                                 : 160 Kbps\nChannel(s)                               : 6 channels\nChannel positions                        : Front: L C R, Side: L R, LFE\nSampling rate                            : 48.0 KHz\nBit depth                                : 16 bits\nCompression mode                         : Lossy\nStream size                              : 102 MiB (10%)\nTitle                                    : XdesiArsenal\nLanguage                                 : English\nDefault                                  : Yes\nForced                                   : No\n\nAudio #2\nID                                       : 3\nFormat                                   : AC-3\nFormat/Info                              : Audio Coding 3\nMode extension                           : CM (complete main)\nFormat settings, Endianness              : Big\nMuxing mode                              : Header stripping\nCodec ID                                 : A_AC3\nDuration                                 : 1h 29mn\nBit rate mode                            : Constant\nBit rate                                 : 160 Kbps\nChannel(s)                               : 2 channels\nChannel positions                        : Front: L R\nSampling rate                            : 48.0 KHz\nBit depth                                : 16 bits\nCompression mode                         : Lossy\nDelay relative to video                  : 1s 700ms\nStream size                              : 102 MiB (10%)\nTitle                                    : XdesiArsenal\nLanguage                                 : Hindi\nDefault                                  : No\nForced                                   : No\n\nMenu\n00:00:00.000                             : en:Chapter 1\n00:07:05.467                             : en:Chapter 2\n00:16:34.118                             : en:Chapter 3\n00:24:27.508                             : en:Chapter 4\n00:33:30.175                             : en:Chapter 5\n00:37:37.297                             : en:Chapter 6\n00:41:40.790                             : en:Chapter 7\n00:46:43.968                             : en:Chapter 8\n00:52:27.269                             : en:Chapter 9\n00:56:43.150                             : en:Chapter 10\n01:03:58.877                             : en:Chapter 11\n01:06:25.064                             : en:Chapter 12\n01:10:45.366                             : en:Chapter 13\n01:14:50.277                             : en:Chapter 14\n01:19:08.369                             : en:Chapter 15","torrent":{"xt":"urn:btih:ec46be9101a93191a703e19a3138317e26d00b27","amp;dn":"Duplex+%282003%29+BRrip+720p+x264+Dual+Audio+%5BEng+DD+5.1-Hindi%5D+Xdes","amp;tr":["udp%3A%2F%2Ftracker.openbittorrent.com%3A80","udp%3A%2F%2Fopen.demonii.com%3A1337","udp%3A%2F%2Ftracker.coppersurfer.tk%3A6969","udp%3A%2F%2Fexodus.desync.com%3A6969"],"infoHash":"ec46be9101a93191a703e19a3138317e26d00b27","infoHashBuffer":{"type":"Buffer","data":[236,70,190,145,1,169,49,145,167,3,225,154,49,56,49,126,38,208,11,39]},"announce":[],"urlList":[]}}